 <svg  version="1.0" xmlns="http://www.w3.org/2000/svg"  width="64.000000pt" height="64.000000pt" viewBox="0 0 64.000000 64.000000"  preserveAspectRatio="xMidYMid meet">  <g transform="translate(0.000000,64.000000) scale(0.100000,-0.100000)" fill="#105b8d" stroke="none"> <path d="M71 602 c-52 -26 -76 -63 -64 -98 5 -16 22 -36 36 -44 24 -13 30 -13 56 2 l29 16 32 -74 c32 -73 32 -74 15 -110 -16 -34 -16 -39 -1 -70 8 -19 21 -34 27 -34 6 0 8 -7 5 -16 -8 -22 18 -78 45 -98 34 -23 83 -20 116 8 l28 24 30 -25 c24 -21 36 -24 69 -20 45 6 86 44 86 78 0 12 9 32 20 46 23 30 26 62 6 88 -11 15 -12 24 -3 40 19 34 14 187 -7 220 l-18 27 -170 -4 -171 -3 -33 33 c-37 37 -79 42 -133 14z m111 -49 c10 -9 18 -22 18 -30 0 -10 36 -13 179 -13 113 0 182 -4 186 -10 13 -21 6 -173 -8 -187 -8 -8 -72 -23 -148 -34 -74 -10 -138 -20 -144 -21 -5 -1 62 -5 150 -8 152 -5 160 -6 160 -25 0 -11 -10 -24 -22 -30 -17 -7 -21 -15 -16 -37 8 -38 -20 -68 -62 -68 -44 0 -69 29 -61 72 6 32 5 33 -28 35 -33 1 -33 1 -23 -27 25 -67 -70 -114 -110 -54 -13 21 -15 32 -6 55 8 21 8 29 0 29 -15 0 -47 31 -47 47 0 7 9 22 21 34 l21 21 -22 51 c-53 125 -73 167 -82 167 -5 0 -22 -10 -38 -22 -24 -17 -32 -19 -45 -8 -23 19 -18 38 18 60 39 24 84 26 109 3z"/> <path d="M220 466 c0 -11 10 -16 31 -16 38 0 35 24 -4 28 -19 2 -27 -1 -27 -12z"/> <path d="M296 465 c4 -10 20 -15 45 -15 28 0 39 4 39 15 0 11 -12 15 -45 15 -35 0 -43 -3 -39 -15z"/> <path d="M410 465 c0 -12 7 -15 25 -13 33 4 33 22 0 26 -18 2 -25 -1 -25 -13z"/> <path d="M482 469 c2 -6 7 -10 11 -10 4 1 16 1 27 1 11 0 20 5 20 10 0 6 -14 10 -31 10 -17 0 -29 -5 -27 -11z"/> <path d="M490 424 c0 -10 7 -14 22 -12 32 5 35 28 4 28 -17 0 -26 -5 -26 -16z"/> <path d="M348 423 c-29 -5 -33 -10 -20 -30 12 -18 52 -4 52 18 0 11 -1 18 -2 18 -2 -1 -15 -4 -30 -6z"/> <path d="M410 414 c0 -11 8 -14 27 -12 39 4 42 28 4 28 -21 0 -31 -5 -31 -16z"/> <path d="M257 413 c-11 -3 -16 -10 -13 -20 3 -8 6 -17 6 -19 0 -2 11 -4 25 -4 14 0 25 4 25 9 0 16 -12 41 -19 40 -3 -1 -14 -3 -24 -6z"/> <path d="M500 355 c0 -29 3 -30 24 -9 22 21 20 34 -4 34 -15 0 -20 -7 -20 -25z"/> <path d="M410 347 c0 -20 4 -23 28 -19 39 5 39 42 0 42 -23 0 -28 -4 -28 -23z"/> <path d="M347 340 c3 -11 14 -20 24 -20 12 0 19 7 19 20 0 14 -7 20 -24 20 -19 0 -23 -4 -19 -20z"/> <path d="M264 334 c3 -9 6 -19 6 -23 0 -5 12 -6 26 -3 17 3 23 9 20 19 -3 8 -6 17 -6 19 0 2 -12 4 -26 4 -20 0 -25 -4 -20 -16z"/> <path d="M277 179 c-39 -22 -4 -79 35 -58 10 5 18 18 18 29 0 25 -30 41 -53 29z"/> <path d="M447 179 c-39 -22 -4 -79 35 -58 10 5 18 18 18 29 0 25 -30 41 -53 29z"/> </g> </svg> 